<?xml version="1.0" encoding="UTF-8" standalone="no"?>
<!DOCTYPE svg PUBLIC "-//W3C//DTD SVG 1.1//EN" "http://www.w3.org/Graphics/SVG/1.1/DTD/svg11.dtd">
<svg width="100%" height="100%" viewBox="0 0 220 40" version="1.1" xmlns="http://www.w3.org/2000/svg" xmlns:xlink="http://www.w3.org/1999/xlink" xml:space="preserve" xmlns:serif="http://www.serif.com/" style="fill-rule:evenodd;clip-rule:evenodd;stroke-linejoin:round;stroke-miterlimit:2;">
    <path d="M20,40C31.046,40 40,31.046 40,20L40,6C40,2.708 37.292,0 34,0L21,0L21,8.774C21,10.776 21.122,12.85 22.172,14.554C23.692,17.024 26.214,18.714 29.076,19.181L29.459,19.243C29.782,19.353 30,19.659 30,20C30,20.341 29.782,20.647 29.459,20.757L29.076,20.819C24.846,21.51 21.51,24.846 20.819,29.076L20.757,29.459C20.647,29.782 20.341,30 20,30C19.659,30 19.353,29.782 19.243,29.459L19.181,29.076C18.714,26.214 17.024,23.692 14.554,22.172C12.85,21.122 10.776,21 8.774,21L0.024,21C0.547,31.581 9.29,40 20,40Z" style="fill:white;fill-rule:nonzero;"/>
    <path d="M0,19L8.774,19C10.776,19 12.85,18.878 14.554,17.828C15.886,17.007 17.007,15.886 17.828,14.554C18.878,12.85 19,10.776 19,8.774L19,0L6,0C2.708,0 -0,2.708 0,6L0,19ZM46.455,2C46.455,3.097 45.552,4 44.455,4C43.358,4 42.455,3.097 42.455,2C42.455,0.903 43.358,0 44.455,0C45.552,-0 46.455,0.903 46.455,2ZM211.711,12.104C217.302,12.104 220,16.009 220,20.532L220,29.027L214.149,29.027L214.149,21.54C214.149,19.49 213.401,17.798 211.256,17.798C209.111,17.798 208.396,19.49 208.396,21.54L208.396,29.026L202.545,29.026L202.545,21.54C202.545,19.49 201.83,17.798 199.684,17.798C197.539,17.798 196.791,19.49 196.791,21.54L196.791,29.026L190.941,29.026L190.941,20.531C190.941,16.008 193.638,12.103 199.229,12.103C202.285,12.103 204.495,13.307 205.503,15.292C206.575,13.307 208.916,12.102 211.711,12.102L211.711,12.104ZM180.427,23.82C182.312,23.82 183.125,22.095 183.125,20.044L183.125,12.754L188.975,12.754L188.975,20.76C188.975,25.544 186.18,29.515 180.427,29.515C174.673,29.515 171.878,25.545 171.878,20.76L171.878,12.754L177.729,12.754L177.729,20.044C177.729,22.094 178.541,23.82 180.427,23.82ZM163.275,29.547C159.602,29.547 157.229,28.278 155.831,25.805L160.057,23.429C160.642,24.47 161.519,24.991 162.982,24.991C164.185,24.991 164.737,24.568 164.737,24.047C164.737,22.062 156.156,24.08 156.156,17.767C156.156,14.707 158.756,12.234 163.177,12.234C167.045,12.234 169.158,14.121 170.101,15.944L165.875,18.352C165.518,17.376 164.412,16.79 163.307,16.79C162.462,16.79 162.007,17.148 162.007,17.636C162.007,19.654 170.588,17.799 170.588,23.917C170.588,27.334 167.24,29.547 163.275,29.547ZM142.833,36.512L136.982,36.512L136.982,20.858C136.982,15.878 140.72,12.266 145.921,12.266C150.992,12.266 154.86,16.139 154.86,20.858C154.86,26.065 151.414,29.515 146.246,29.515C145.043,29.515 143.841,29.157 142.833,28.603L142.833,36.512ZM145.921,24.015C147.774,24.015 149.009,22.583 149.009,20.89C149.009,19.166 147.774,17.766 145.921,17.766C144.068,17.766 142.833,19.166 142.833,20.891C142.833,22.583 144.068,24.015 145.921,24.015ZM131.121,11.03C129.203,11.03 127.611,9.435 127.611,7.515C127.611,5.595 129.203,4 131.121,4C133.039,4 134.632,5.595 134.632,7.515C134.632,9.435 133.039,11.03 131.121,11.03ZM128.196,12.754L134.047,12.754L134.047,29.027L128.196,29.027L128.196,12.754ZM116.97,29.515C111.899,29.515 108.031,25.61 108.031,20.858C108.031,16.139 111.899,12.234 116.97,12.234C122.041,12.234 125.909,16.139 125.909,20.858C125.909,25.61 122.041,29.515 116.97,29.515ZM116.97,24.015C118.823,24.015 120.058,22.583 120.058,20.89C120.058,19.166 118.823,17.734 116.97,17.734C115.117,17.734 113.882,19.166 113.882,20.89C113.882,22.583 115.117,24.015 116.97,24.015ZM96.983,37C92.953,37 90.027,35.21 88.532,32.02L93.375,29.417C93.895,30.524 94.87,31.663 96.885,31.663C98.999,31.663 100.396,30.328 100.559,27.985C99.779,28.669 98.543,29.189 96.691,29.189C92.172,29.189 88.531,25.707 88.531,20.825C88.531,16.107 92.4,12.266 97.471,12.266C102.672,12.266 106.41,15.879 106.41,20.858L106.41,27.302C106.41,33.16 102.346,37 96.983,37ZM97.373,23.69C99.128,23.69 100.461,22.485 100.461,20.695C100.461,18.938 99.129,17.766 97.373,17.766C95.65,17.766 94.285,18.938 94.285,20.696C94.285,22.486 95.65,23.689 97.373,23.689L97.373,23.69ZM78.607,29.515C73.536,29.515 69.667,25.61 69.667,20.858C69.667,16.139 73.536,12.234 78.607,12.234C83.677,12.234 87.546,16.139 87.546,20.858C87.546,25.61 83.677,29.515 78.606,29.515L78.607,29.515ZM78.607,24.015C80.46,24.015 81.695,22.583 81.695,20.89C81.695,19.166 80.46,17.734 78.607,17.734C76.754,17.734 75.519,19.166 75.519,20.89C75.519,22.583 76.754,24.015 78.607,24.015ZM59.013,7.06L59.013,23.494L68.7,23.494L68.7,29.027L58.2,29.027C54.495,29.027 53,27.074 53,23.982L53,7.06L59.013,7.06Z" style="fill:white;fill-rule:nonzero;"/>
</svg>
